<?xml version="1.0" encoding="utf-8"?>
<!-- Generator: Adobe Illustrator 24.1.0, SVG Export Plug-In . SVG Version: 6.00 Build 0)  -->
<svg version="1.1" id="Capa_1" xmlns="http://www.w3.org/2000/svg" xmlns:xlink="http://www.w3.org/1999/xlink" x="0px" y="0px"
	 viewBox="0 0 512 512" style="enable-background:new 0 0 512 512;" xml:space="preserve">
<style type="text/css">
	.st0{fill:#514F51;}
</style>
<g>
	<path class="st0" d="M27.23,213.84c0.37-0.03,21.34-0.08,29.39-0.08c0.41,0,0.82,0.02,1.23,0.03c0.17,0.01,0.33,0.19,0.34,0.38
		c0.01,0.22,0.03,0.45,0.03,0.67c0,2.76,0,5.52,0,8.27c0,0.22-0.01,0.45-0.03,0.67c-0.01,0.2-0.15,0.33-0.37,0.35
		c-0.93,0.06-1.86,0.13-2.79,0.18c-1.38,0.08-2.75,0.14-4.13,0.22c-0.18,0.01-0.36,0.06-0.54,0.1c-0.03,0.42,0.13,0.77,0.24,1.12
		c0.67,2.13,1.33,4.26,2,6.4c3.54,11.3,7.07,22.6,10.61,33.9c0.14,0.46,0.23,0.94,0.49,1.36c0.05,0.08,0.11,0.1,0.19,0.06
		c0.03-0.02,0.08-0.02,0.1-0.05c0.05-0.06,0.09-0.12,0.12-0.19c0.1-0.28,0.18-0.57,0.27-0.85c4.09-13.43,8.17-26.86,12.25-40.29
		c0.14-0.46,0.36-0.9,0.32-1.44c-0.14-0.04-0.28-0.1-0.42-0.11c-1.08-0.07-2.16-0.14-3.23-0.21c-0.82-0.05-1.64-0.11-2.45-0.17
		c-0.15-0.01-0.29-0.06-0.43-0.09c-0.04-0.13-0.1-0.23-0.1-0.33c-0.02-0.3-0.03-0.6-0.03-0.89c0-2.57,0-5.14,0-7.71
		c0-0.19,0-0.37,0-0.56c0.02-0.7,0.1-0.79,0.75-0.8c0.19,0,0.37,0,0.56,0c8.31,0,16.62,0,24.93,0c1.35,0,1.3-0.02,1.3,1.28
		c0,2.53,0,5.07,0,7.6c0,0.3-0.01,0.6-0.03,0.89c-0.01,0.19-0.16,0.34-0.36,0.36c-1.04,0.08-2.08,0.16-3.12,0.22
		c-0.48,0.03-0.96,0.07-1.44,0.18c-0.81,0.18-1.43,0.62-1.87,1.31c-0.2,0.31-0.36,0.65-0.51,0.99c-0.16,0.38-0.29,0.77-0.41,1.16
		c-5.01,15.48-10.01,30.97-15.01,46.45c-0.46,1.42-0.91,2.84-1.37,4.25c-0.08,0.25-0.16,0.5-0.27,0.73
		c-0.04,0.08-0.16,0.16-0.25,0.18c-0.18,0.04-0.37,0.05-0.55,0.05c-0.63,0.01-1.27,0-1.9,0c-5.22,0-10.43,0-15.65,0
		c-0.3,0-0.6,0-0.89,0c-0.68-0.01-0.75,0.02-1.02-0.75c-1.46-4.18-2.94-8.36-4.41-12.54c-4.55-12.93-9.09-25.85-13.64-38.78
		c-0.17-0.49-0.37-0.98-0.59-1.44c-0.44-0.89-1.15-1.45-2.15-1.61c-0.29-0.05-0.59-0.11-0.88-0.14c-1.11-0.09-2.23-0.16-3.34-0.23
		c-0.3-0.02-0.6-0.01-0.89-0.01C27.23,220.55,27.23,217.19,27.23,213.84z"/>
	<path class="st0" d="M118.92,185.66c0.13,0.06,0.25,0.16,0.39,0.19c0.47,0.11,0.95,0.17,1.42,0.3c4.22,1.15,6.37,4.44,6.93,7.43
		c0.28,1.53,0.27,3.04-0.14,4.54c-0.71,2.63-2.29,4.57-4.71,5.8c-1.98,1.01-4.1,1.32-6.29,1.08c-0.85-0.09-1.69-0.26-2.5-0.56
		c-3.15-1.16-5.12-3.36-5.85-6.64c-0.39-1.78-0.35-3.56,0.2-5.3c1.05-3.37,3.33-5.47,6.73-6.37c0.47-0.12,0.95-0.18,1.42-0.29
		c0.14-0.03,0.26-0.12,0.39-0.19C117.58,185.66,118.25,185.66,118.92,185.66z"/>
	<path class="st0" d="M484.77,274.23c-0.07,0.13-0.18,0.25-0.2,0.39c-0.2,1.45-0.9,2.67-1.82,3.77c-0.98,1.17-2.22,1.98-3.66,2.47
		c-0.92,0.31-1.87,0.49-2.85,0.52c-1.42,0.04-2.83-0.06-4.2-0.46c-1.19-0.35-2.29-0.88-3.24-1.7c-1.13-0.97-1.92-2.18-2.35-3.6
		c-0.69-2.27-0.73-4.56,0.01-6.82c1.01-3.08,3.13-4.99,6.29-5.75c0.58-0.14,1.17-0.21,1.77-0.23c1.5-0.06,2.98,0.04,4.42,0.5
		c0.93,0.3,1.8,0.71,2.59,1.29c1.37,1,2.31,2.31,2.85,3.91c0.09,0.28,0.13,0.58,0.19,0.87c0.03,0.15,0.09,0.28,0.21,0.38
		C484.77,271.25,484.77,272.74,484.77,274.23z"/>
	<path class="st0" d="M295.8,326.34c-0.1-0.12-0.23-0.17-0.38-0.22c-0.35-0.11-0.71-0.22-1.05-0.37c-1.67-0.74-2.87-1.96-3.67-3.6
		c-0.46-0.95-0.75-1.95-0.88-2.99c-0.19-1.56-0.17-3.12,0.2-4.66c0.27-1.13,0.7-2.2,1.39-3.15c1.17-1.61,2.72-2.6,4.69-2.95
		c1.23-0.22,2.45-0.18,3.66,0.11c1.97,0.47,3.51,1.58,4.57,3.32c0.65,1.07,1.04,2.23,1.23,3.45c0.25,1.67,0.24,3.34-0.19,4.99
		c-0.14,0.54-0.31,1.07-0.54,1.58c-0.92,2.09-2.45,3.52-4.65,4.21c-0.21,0.07-0.45,0.07-0.6,0.27
		C298.34,326.34,297.07,326.34,295.8,326.34z M304.16,317.3c-0.02-0.45-0.02-0.89-0.07-1.34c-0.14-1.35-0.52-2.62-1.28-3.76
		c-0.73-1.09-1.72-1.83-2.96-2.25c-0.54-0.18-1.09-0.28-1.64-0.31c-2.57-0.15-4.57,0.82-5.85,3.1c-0.22,0.39-0.41,0.8-0.54,1.22
		c-0.71,2.26-0.71,4.54-0.02,6.81c0.22,0.72,0.56,1.38,1.01,1.98c0.79,1.05,1.8,1.75,3.07,2.1c0.8,0.22,1.62,0.24,2.44,0.19
		c1.96-0.1,3.46-1.01,4.55-2.63c0.35-0.53,0.61-1.1,0.81-1.71C304.03,319.6,304.17,318.46,304.16,317.3z"/>
	<path class="st0" d="M447.87,326.34c-0.05-0.05-0.08-0.13-0.14-0.16c-0.21-0.08-0.42-0.14-0.63-0.22c-1.96-0.7-3.36-2.02-4.24-3.9
		c-0.29-0.61-0.49-1.25-0.64-1.9c-0.52-2.23-0.43-4.44,0.29-6.61c0.26-0.78,0.62-1.52,1.11-2.19c1.17-1.62,2.73-2.6,4.7-2.96
		c1.23-0.22,2.46-0.18,3.66,0.11c1.98,0.47,3.51,1.59,4.57,3.33c0.51,0.84,0.85,1.74,1.07,2.69c0.47,2.07,0.44,4.14-0.15,6.19
		c-0.08,0.29-0.18,0.57-0.29,0.84c-0.89,2.2-2.42,3.72-4.69,4.48c-0.2,0.07-0.45,0.05-0.57,0.29
		C450.55,326.34,449.21,326.34,447.87,326.34z M456.36,317.27c0.04-0.72-0.09-1.49-0.23-2.26c-0.2-1.03-0.57-2-1.17-2.87
		c-0.72-1.04-1.68-1.79-2.89-2.18c-1.08-0.35-2.17-0.45-3.3-0.26c-1.68,0.27-2.97,1.13-3.92,2.51c-0.47,0.68-0.79,1.43-1,2.23
		c-0.45,1.68-0.5,3.38-0.19,5.09c0.18,0.99,0.5,1.94,1.05,2.81c0.83,1.32,2,2.18,3.52,2.56c0.77,0.19,1.55,0.19,2.33,0.15
		c1.78-0.1,3.2-0.9,4.27-2.31c0.52-0.69,0.88-1.47,1.11-2.3C456.2,319.42,456.37,318.4,456.36,317.27z"/>
	<path class="st0" d="M160.96,326.34c-0.13-0.07-0.25-0.16-0.38-0.21c-0.35-0.13-0.71-0.22-1.05-0.37
		c-1.71-0.75-2.93-2.01-3.72-3.69c-0.42-0.88-0.69-1.81-0.82-2.77c-0.21-1.6-0.2-3.19,0.18-4.77c0.28-1.17,0.73-2.27,1.45-3.24
		c1.16-1.56,2.7-2.52,4.62-2.87c1.27-0.23,2.53-0.18,3.77,0.13c2.05,0.52,3.6,1.72,4.64,3.58c0.57,1.02,0.92,2.12,1.08,3.27
		c0.22,1.59,0.21,3.19-0.17,4.77c-0.14,0.58-0.32,1.15-0.56,1.69c-0.93,2.09-2.45,3.52-4.64,4.22c-0.21,0.07-0.45,0.07-0.59,0.27
		C163.5,326.34,162.23,326.34,160.96,326.34z M169.3,317.33c-0.02-0.41-0.02-0.82-0.05-1.23c-0.12-1.27-0.44-2.49-1.1-3.6
		c-0.77-1.31-1.88-2.2-3.35-2.61c-0.5-0.14-1.02-0.25-1.53-0.27c-2.57-0.12-4.55,0.89-5.81,3.18c-0.23,0.42-0.4,0.88-0.55,1.34
		c-0.43,1.25-0.49,2.55-0.46,3.86c0.03,0.94,0.2,1.85,0.48,2.74c0.2,0.64,0.49,1.25,0.87,1.8c0.81,1.18,1.9,1.96,3.29,2.33
		c0.81,0.21,1.62,0.22,2.44,0.17c1.78-0.1,3.19-0.91,4.26-2.32c0.45-0.6,0.78-1.27,1.01-1.98
		C169.16,319.63,169.32,318.49,169.3,317.33z"/>
	<path class="st0" d="M33.72,326.34c-0.13-0.15-0.31-0.19-0.49-0.24c-1.89-0.58-3.22-1.81-4.07-3.57c-0.18-0.37-0.33-0.75-0.45-1.14
		c-0.74-2.56-0.78-5.14-0.12-7.72c0.15-0.58,0.38-1.13,0.65-1.66c0.99-1.91,2.57-3.05,4.66-3.49c1.32-0.28,2.66-0.35,3.99-0.05
		c0.66,0.14,1.3,0.35,1.88,0.68c1.63,0.92,2.56,2.33,2.91,4.15c0.01,0.04,0.02,0.08,0,0.11c-0.05,0.09-0.11,0.23-0.18,0.25
		c-0.44,0.08-0.88,0.12-1.33-0.07c-0.11-0.31-0.22-0.63-0.34-0.94c-0.56-1.47-1.61-2.4-3.13-2.77c-1.02-0.25-2.05-0.34-3.1-0.15
		c-1.44,0.25-2.55,0.98-3.41,2.13c-0.49,0.67-0.84,1.41-1.06,2.2c-0.43,1.56-0.58,3.14-0.35,4.76c0.08,0.59,0.15,1.18,0.31,1.76
		c0.2,0.72,0.48,1.41,0.89,2.04c0.96,1.47,2.31,2.29,4.06,2.43c0.67,0.05,1.34,0.07,2-0.07c1.08-0.24,2.01-0.76,2.76-1.59
		c0.53-0.59,0.92-1.26,1.2-2c0.12-0.31,0.23-0.63,0.35-0.95c0.45-0.13,0.89-0.11,1.33-0.04c0.08,0.01,0.18,0.17,0.16,0.26
		c-0.01,0.07-0.01,0.15-0.03,0.22c-0.22,0.79-0.52,1.55-0.94,2.26c-0.79,1.33-1.92,2.25-3.37,2.81c-0.34,0.13-0.75,0.1-1.01,0.42
		C36.25,326.34,34.99,326.34,33.72,326.34z"/>
	<path class="st0" d="M404.04,326.34c-0.05-0.05-0.09-0.13-0.15-0.16c-0.1-0.05-0.21-0.07-0.32-0.11c-1.96-0.65-3.29-1.97-4.1-3.85
		c-0.43-1-0.67-2.05-0.77-3.13c-0.12-1.19-0.11-2.38,0-3.57c0.09-1.01,0.33-1.98,0.72-2.91c0.92-2.18,2.53-3.56,4.84-4.07
		c1.36-0.3,2.72-0.38,4.1-0.08c0.55,0.12,1.08,0.28,1.59,0.52c1.11,0.53,1.97,1.33,2.55,2.42c0.17,0.33,0.33,0.67,0.45,1.02
		c0.42,1.3,0.4,1.32-0.94,1.27c-0.21-0.01-0.35-0.11-0.42-0.3c-0.09-0.24-0.17-0.49-0.26-0.74c-0.55-1.47-1.6-2.4-3.11-2.78
		c-0.98-0.24-1.97-0.34-2.99-0.18c-1.66,0.25-2.89,1.12-3.78,2.51c-0.32,0.5-0.57,1.05-0.75,1.62c-0.27,0.86-0.45,1.73-0.48,2.63
		c-0.05,1.19-0.02,2.38,0.23,3.56c0.19,0.88,0.47,1.73,0.95,2.49c0.97,1.56,2.38,2.42,4.22,2.55c0.67,0.05,1.34,0.06,2-0.1
		c1.32-0.32,2.37-1.05,3.14-2.17c0.41-0.59,0.69-1.23,0.91-1.91c0.06-0.17,0.15-0.33,0.22-0.47c0.45-0.1,0.86-0.07,1.27-0.04
		c0.14,0.01,0.24,0.17,0.2,0.33c-0.21,0.83-0.52,1.63-0.95,2.37c-0.73,1.27-1.78,2.18-3.13,2.75c-0.31,0.13-0.64,0.21-0.95,0.33
		c-0.09,0.04-0.17,0.13-0.25,0.2C406.72,326.34,405.38,326.34,404.04,326.34z"/>
	<path class="st0" d="M328.92,249.78c0,5.81,0,11.63,0,17.44c0,0.37,0.02,0.74,0.04,1.11c0.01,0.13,0.16,0.27,0.3,0.29
		c0.11,0.02,0.22,0.03,0.33,0.04c1.53,0.08,3.05,0.15,4.58,0.24c0.63,0.04,1.26,0.1,1.89,0.15c0.13,0.01,0.29,0.17,0.3,0.29
		c0.02,0.22,0.03,0.45,0.03,0.67c0,2.8,0,5.59,0,8.39c0,0.22-0.02,0.45-0.04,0.67c-0.01,0.13-0.16,0.29-0.28,0.3
		c-0.19,0.01-0.37,0.03-0.56,0.03c-0.63,0-1.27,0-1.9,0c-8.91,0-17.81,0-26.72,0c-0.41,0-0.82-0.02-1.23-0.04
		c-0.13-0.01-0.27-0.16-0.28-0.3c-0.02-0.19-0.03-0.37-0.04-0.56c0-2.68,0-5.37,0-8.05c0-0.15,0-0.3,0.01-0.45
		c0.02-0.32,0.14-0.45,0.48-0.49c0.7-0.07,1.41-0.14,2.11-0.21c0.74-0.07,1.48-0.14,2.22-0.23c0.37-0.05,0.73-0.14,1.09-0.26
		c1.04-0.34,1.7-1.06,1.95-2.12c0.12-0.5,0.17-1.03,0.22-1.55c0.03-0.37,0.01-0.74,0.01-1.12c0-8.57-0.01-17.14,0-25.72
		c0-1.57-0.06-3.13-0.22-4.69c-0.14-1.37-0.39-2.73-0.86-4.03c-0.2-0.56-0.44-1.11-0.73-1.63c-0.9-1.58-2.2-2.71-3.88-3.39
		c-0.76-0.31-1.56-0.52-2.37-0.64c-2.27-0.32-4.53-0.3-6.76,0.34c-4.56,1.31-7.48,4.29-8.88,8.79c-0.32,1.03-0.5,2.1-0.52,3.19
		c-0.01,0.52-0.02,1.04-0.02,1.57c0,9.73,0,19.46,0,29.18c0,0.41,0.01,0.82,0.02,1.23c0.01,0.23,0.18,0.39,0.44,0.41
		c1.45,0.08,2.9,0.16,4.35,0.24c0.71,0.04,1.41,0.09,2.12,0.14c0.11,0.01,0.22,0.04,0.32,0.09c0.06,0.03,0.12,0.1,0.13,0.16
		c0.03,0.22,0.05,0.44,0.05,0.66c0,2.83,0,5.67,0,8.5c0,0.22,0,0.45-0.04,0.67c-0.02,0.09-0.12,0.18-0.21,0.23
		c-0.09,0.05-0.22,0.06-0.33,0.06c-0.3,0.01-0.6,0.01-0.89,0.01c-9.35,0-18.71,0-28.06,0c-1.69,0-1.5,0.18-1.51-1.48
		c-0.01-2.35,0-4.7,0-7.04c0-0.3,0-0.6,0.01-0.89c0.01-0.27,0.14-0.42,0.39-0.45c0.63-0.07,1.26-0.14,1.89-0.2
		c0.82-0.08,1.63-0.16,2.45-0.24c0.52-0.05,1.02-0.2,1.51-0.4c0.77-0.32,1.27-0.9,1.54-1.67c0.15-0.42,0.26-0.86,0.27-1.31
		c0.01-0.41,0.03-0.82,0.03-1.23c0-11.85,0-23.7,0-35.56c0-0.41-0.01-0.82-0.03-1.23c-0.01-0.49-0.13-0.96-0.3-1.42
		c-0.28-0.74-0.8-1.25-1.55-1.5c-0.39-0.13-0.79-0.22-1.2-0.24c-1.26-0.08-2.53-0.16-3.79-0.26c-0.52-0.04-1.04-0.1-1.56-0.16
		c-0.14-0.02-0.28-0.16-0.29-0.29c-0.01-0.11-0.02-0.22-0.02-0.33c0-0.19,0-0.37,0-0.56c0-2.65,0-5.29,0-7.94
		c0-0.3,0.02-0.6,0.03-0.89c0.01-0.14,0.15-0.28,0.28-0.3c0.11-0.02,0.22-0.04,0.33-0.04c0.26-0.01,0.52-0.01,0.78-0.01
		c6.41,0,12.82,0,19.23,0c0.11,0,0.22,0,0.34,0c1.05,0.01,1.05,0.01,1.05,1.06c0,1.94,0,3.88,0,5.81c0,0.33,0.03,0.67,0.04,1
		c0,0.09,0.05,0.15,0.14,0.15c0.06,0,0.14-0.02,0.19-0.07c0.11-0.1,0.2-0.22,0.3-0.33c3.71-4.69,8.55-7.55,14.33-8.9
		c1.93-0.45,3.89-0.68,5.87-0.68c1.53,0,3.05,0.04,4.57,0.27c2.04,0.3,4.01,0.81,5.89,1.67c3.33,1.52,5.87,3.89,7.64,7.1
		c1.05,1.91,1.76,3.94,2.21,6.07c0.44,2.05,0.69,4.11,0.71,6.21c0.01,0.71,0.02,1.42,0.02,2.12
		C328.92,240.09,328.92,244.94,328.92,249.78z"/>
	<path class="st0" d="M191.44,263.46c0.18,0.08,0.26,0.25,0.33,0.42c0.33,0.71,0.66,1.42,0.99,2.13c1.06,2.26,2.12,4.52,3.18,6.78
		c0.13,0.27,0.25,0.54,0.35,0.82c0.06,0.15,0.01,0.31-0.11,0.41c-0.29,0.24-0.58,0.47-0.88,0.69c-1.19,0.84-2.45,1.56-3.75,2.21
		c-3.49,1.74-7.16,2.92-11,3.6c-3.1,0.55-6.22,0.73-9.35,0.58c-3.21-0.16-6.38-0.59-9.46-1.53c-1.53-0.47-3.03-1.05-4.46-1.77
		c-4.25-2.13-7.57-5.25-9.97-9.35c-1.39-2.36-2.38-4.88-3.09-7.52c-0.55-2.05-0.93-4.14-1.17-6.25c-0.3-2.6-0.44-5.2-0.36-7.81
		c0.14-4.95,0.93-9.78,2.65-14.45c1.18-3.2,2.75-6.2,4.81-8.92c4.22-5.56,9.73-9.14,16.51-10.76c2.4-0.57,4.83-0.89,7.3-0.91
		c1.04-0.01,2.09-0.02,3.13,0.04c3.07,0.18,6.06,0.77,8.89,1.99c1.06,0.46,2.08,1.01,3.04,1.66c3.39,2.3,5.57,5.44,6.57,9.4
		c0.54,2.15,0.71,4.33,0.55,6.54c-0.11,1.53-0.31,3.04-0.71,4.52c-0.96,3.6-2.84,6.62-5.6,9.1c-1.39,1.25-2.93,2.3-4.57,3.2
		c-2.27,1.24-4.66,2.16-7.14,2.87c-2.08,0.6-4.19,1.05-6.32,1.39c-3.13,0.5-6.28,0.81-9.45,0.91c-0.89,0.03-1.79,0.07-2.68,0.11
		c-0.66,0.03-0.75,0.13-0.67,0.83c0.05,0.48,0.11,0.96,0.18,1.44c0.24,1.51,0.61,2.99,1.19,4.41c1.73,4.22,4.8,6.93,9.19,8.12
		c2.32,0.63,4.69,0.79,7.09,0.63c4.65-0.31,8.87-1.86,12.78-4.31c0.51-0.32,1-0.65,1.5-0.98
		C191.09,263.59,191.24,263.47,191.44,263.46z M160.99,242.54c2.17-0.07,4.42-0.33,6.66-0.72c1.98-0.35,3.93-0.84,5.82-1.55
		c1.4-0.53,2.74-1.18,3.97-2.03c0.89-0.62,1.7-1.33,2.39-2.17c0.86-1.06,1.46-2.24,1.77-3.57c0.26-1.1,0.29-2.21,0.21-3.33
		c-0.05-0.71-0.22-1.4-0.47-2.06c-0.56-1.45-1.52-2.54-2.9-3.27c-0.8-0.43-1.65-0.68-2.53-0.83c-1.49-0.27-2.98-0.2-4.45,0.06
		c-2.6,0.45-4.87,1.59-6.79,3.4c-1.09,1.03-2,2.2-2.78,3.49c-0.99,1.64-1.71,3.39-2.26,5.21c-0.57,1.9-0.91,3.84-1.1,5.81
		c-0.04,0.44-0.03,0.89-0.04,1.34c0,0.14,0.15,0.29,0.28,0.3c0.19,0.01,0.37,0.03,0.56,0.03
		C159.84,242.61,160.36,242.58,160.99,242.54z"/>
	<path class="st0" d="M343.36,248.28c0.04-1.19,0.04-2.39,0.12-3.58c0.36-5.13,1.45-10.1,3.58-14.8c1.58-3.49,3.66-6.65,6.36-9.39
		c3.65-3.69,7.99-6.18,12.99-7.54c2.64-0.72,5.32-1.11,8.06-1.14c1.08-0.01,2.16-0.03,3.24,0.03c2.88,0.16,5.69,0.68,8.38,1.75
		c1.32,0.53,2.57,1.17,3.75,1.98c3.48,2.39,5.64,5.68,6.57,9.78c0.56,2.46,0.6,4.95,0.32,7.45c-0.18,1.6-0.52,3.16-1.06,4.67
		c-1.06,2.97-2.8,5.5-5.15,7.6c-1.48,1.33-3.12,2.42-4.87,3.35c-2.15,1.14-4.41,2-6.74,2.68c-2.58,0.75-5.21,1.27-7.87,1.64
		c-1.81,0.26-3.63,0.43-5.45,0.57c-1.6,0.12-3.2,0.15-4.8,0.22c-0.26,0.01-0.52,0.03-0.78,0.05c-0.15,0.01-0.29,0.15-0.29,0.28
		c0.01,0.37,0,0.75,0.05,1.11c0.22,1.74,0.59,3.45,1.24,5.09c1.7,4.28,4.77,7.04,9.2,8.26c2.32,0.64,4.69,0.8,7.09,0.65
		c4.76-0.31,9.08-1.92,13.08-4.46c0.53-0.34,1.06-0.68,1.6-1.03c0.07-0.05,0.26-0.01,0.3,0.06c0.04,0.06,0.09,0.12,0.13,0.18
		c0.07,0.13,0.14,0.26,0.2,0.4c1.41,3,2.82,6,4.22,9c0.08,0.17,0.17,0.34,0.21,0.52c0.02,0.09-0.02,0.23-0.09,0.3
		c-0.15,0.16-0.33,0.3-0.51,0.43c-0.93,0.69-1.91,1.3-2.92,1.85c-3.42,1.88-7.05,3.18-10.87,3.99c-3.48,0.74-7,1.01-10.55,0.85
		c-3.25-0.15-6.45-0.58-9.58-1.52c-2.62-0.79-5.09-1.9-7.36-3.44c-3.57-2.43-6.22-5.64-8.11-9.49c-1.25-2.56-2.11-5.25-2.68-8.04
		C343.65,255.2,343.36,251.76,343.36,248.28z M361.7,242.54c1.55-0.04,3.29-0.22,5.02-0.47c1.88-0.26,3.74-0.63,5.56-1.17
		c1.54-0.45,3.03-1.03,4.44-1.8c1.22-0.66,2.33-1.46,3.29-2.47c1.1-1.16,1.87-2.5,2.26-4.05c0.38-1.5,0.42-3.02,0.05-4.53
		c-0.5-2.09-1.71-3.6-3.69-4.47c-0.72-0.31-1.47-0.51-2.25-0.62c-1.11-0.16-2.22-0.15-3.34-0.03c-3.04,0.32-5.64,1.55-7.84,3.66
		c-1,0.96-1.83,2.05-2.56,3.23c-0.82,1.34-1.47,2.76-1.98,4.24c-0.9,2.58-1.35,5.25-1.54,7.97c-0.01,0.11,0.02,0.22,0.03,0.33
		c0.02,0.13,0.12,0.2,0.22,0.22c0.18,0.03,0.37,0.05,0.55,0.04C360.46,242.61,360.98,242.58,361.7,242.54z"/>
	<path class="st0" d="M454.94,217.06c0.11,0.92,0.15,7.56,0.07,14.63c0,0.26-0.05,0.51-0.08,0.77c0,0.03-0.04,0.06-0.08,0.12
		c-0.56,0.13-1.15,0.17-1.74,0.22c-1.75,0.13-3.49,0.27-5.24,0.41c-1.11,0.09-2.23,0.17-3.34,0.26c-0.22,0.02-0.45,0.02-0.67,0.03
		c-0.39,0.01-0.51-0.11-0.52-0.54c-0.01-0.3-0.01-0.6-0.01-0.89c0-1.23,0.01-2.46-0.01-3.69c-0.01-0.56-0.06-1.12-0.12-1.67
		c-0.13-1.07-0.67-1.89-1.6-2.43c-0.42-0.24-0.85-0.46-1.3-0.63c-1.68-0.65-3.42-1.03-5.22-1.12c-1.3-0.06-2.61-0.1-3.91,0
		c-1.16,0.08-2.28,0.34-3.37,0.74c-0.81,0.3-1.56,0.71-2.24,1.24c-1.44,1.14-2.29,2.61-2.58,4.43c-0.13,0.85-0.15,1.7-0.02,2.56
		c0.21,1.37,0.79,2.55,1.73,3.56c0.61,0.66,1.32,1.2,2.09,1.67c1.02,0.62,2.11,1.11,3.23,1.52c1.4,0.52,2.82,0.95,4.26,1.35
		c2.47,0.7,4.95,1.38,7.38,2.22c1.94,0.67,3.84,1.44,5.64,2.41c1.35,0.73,2.62,1.57,3.79,2.57c2.57,2.21,4.26,4.96,5.04,8.25
		c0.55,2.3,0.72,4.63,0.52,6.99c-0.15,1.79-0.48,3.54-1.08,5.24c-1.19,3.35-3.21,6.12-5.98,8.33c-2.24,1.79-4.76,3.05-7.47,3.94
		c-2.27,0.74-4.61,1.19-6.99,1.42c-2.68,0.25-5.36,0.2-8.04,0.04c-1.38-0.08-2.75-0.16-4.12-0.3c-3.78-0.39-7.54-0.96-11.2-2.01
		c-1.11-0.32-2.2-0.69-3.27-1.15c-0.24-0.1-0.47-0.22-0.7-0.34c-0.14-0.07-0.23-0.2-0.24-0.35c-0.02-0.37-0.04-0.74-0.04-1.12
		c0-3.32,0-6.63,0-9.95c0-1.83,0-3.65,0-5.48c0-0.33,0.02-0.67,0.04-1c0.01-0.14,0.14-0.27,0.28-0.3c0.07-0.02,0.14-0.04,0.22-0.05
		c0.18-0.03,0.37-0.05,0.55-0.07c1.34-0.1,2.68-0.19,4.01-0.29c1.45-0.11,2.9-0.24,4.34-0.35c0.56-0.04,1.12-0.08,1.67-0.1
		c0.46-0.02,0.56,0.09,0.57,0.6c0.01,0.3,0,0.6,0,0.89c0,1.6,0,3.21,0,4.81c0,0.56,0.04,1.11,0.18,1.66c0.2,0.8,0.63,1.42,1.3,1.89
		c0.43,0.3,0.9,0.53,1.38,0.73c0.94,0.38,1.91,0.63,2.89,0.83c2.68,0.55,5.4,0.63,8.12,0.44c1.08-0.08,2.14-0.31,3.16-0.67
		c0.78-0.27,1.51-0.63,2.18-1.11c1.06-0.76,1.81-1.76,2.27-2.98c0.27-0.74,0.45-1.5,0.48-2.29c0.03-0.97,0.05-1.93-0.2-2.89
		c-0.31-1.19-0.9-2.2-1.79-3.04c-0.6-0.57-1.28-1.02-2.01-1.4c-1.02-0.54-2.1-0.95-3.2-1.3c-1.6-0.51-3.22-0.92-4.84-1.34
		c-2.13-0.55-4.26-1.09-6.34-1.79c-1.52-0.51-3.02-1.08-4.46-1.78c-1.17-0.57-2.3-1.23-3.36-2c-3.28-2.38-5.34-5.55-6.23-9.5
		c-0.51-2.27-0.67-4.56-0.51-6.89c0.12-1.83,0.46-3.62,1.07-5.35c1.2-3.4,3.26-6.17,6.08-8.39c2.22-1.75,4.71-2.99,7.39-3.87
		c2.13-0.7,4.31-1.14,6.54-1.39c2.42-0.27,4.84-0.27,7.25-0.11c3.05,0.21,6.06,0.75,9.01,1.55c2.92,0.79,5.75,1.82,8.49,3.1
		C454.38,216.7,454.7,216.8,454.94,217.06z"/>
	<path class="st0" d="M257.75,214.64c0.03,0.15,0.08,0.3,0.08,0.44c0.02,0.3,0.01,0.6,0.01,0.89c0,5.55,0,11.11,0,16.66
		c0,0.34,0,0.67-0.02,1.01c-0.02,0.28-0.1,0.46-0.49,0.49c-0.85,0.07-1.71,0.14-2.56,0.2c-1.41,0.1-2.82,0.2-4.24,0.3
		c-1.37,0.1-2.75,0.2-4.12,0.3c-0.15,0.01-0.3,0-0.44-0.03c-0.06-0.01-0.15-0.08-0.16-0.14c-0.04-0.18-0.06-0.37-0.06-0.55
		c0-1.6,0-3.2,0-4.81c0-0.41-0.01-0.82-0.02-1.23c-0.01-0.38-0.1-0.74-0.21-1.09c-0.21-0.68-0.63-1.16-1.29-1.45
		c-0.83-0.36-1.71-0.54-2.61-0.56c-4.82-0.14-8.52,1.78-10.91,6.03c-0.89,1.58-1.38,3.29-1.6,5.08c-0.11,0.93-0.15,1.85-0.15,2.79
		c0,9.39,0,18.78,0,28.17c0,0.04,0,0.07,0,0.11c0,1.52-0.1,1.37,1.38,1.44c2.27,0.11,4.54,0.23,6.81,0.34
		c0.74,0.04,1.49,0.05,2.23,0.08c0.19,0.01,0.37,0.02,0.56,0.04c0.21,0.02,0.36,0.15,0.37,0.34c0.01,0.26,0.02,0.52,0.02,0.78
		c0,1.86,0,3.73,0,5.59c0,0.86,0,1.71,0,2.57c0,0.22-0.02,0.45-0.03,0.67c-0.01,0.13-0.15,0.26-0.31,0.27
		c-0.11,0.01-0.22,0.03-0.33,0.03c-0.3,0-0.6,0-0.89,0c-10.58,0-21.16,0-31.75,0c-1.82,0-1.62,0.21-1.63-1.59
		c-0.01-2.27,0-4.55,0-6.82c0-0.34,0-0.67,0.02-1.01c0.01-0.27,0.15-0.43,0.39-0.45c0.63-0.07,1.26-0.14,1.89-0.2
		c0.82-0.08,1.63-0.14,2.45-0.24c0.4-0.05,0.81-0.15,1.19-0.27c1.04-0.34,1.69-1.07,1.94-2.13c0.12-0.51,0.16-1.03,0.21-1.55
		c0.03-0.3,0.01-0.6,0.01-0.89c0-11.7,0-23.4,0-35.11c0-0.56-0.03-1.12-0.06-1.67c-0.01-0.18-0.06-0.37-0.1-0.55
		c-0.25-1.42-1.13-1.98-2.24-2.15c-0.59-0.09-1.18-0.14-1.78-0.18c-1.3-0.1-2.6-0.18-3.9-0.27c-0.15-0.01-0.3-0.03-0.44-0.07
		c-0.06-0.02-0.12-0.09-0.15-0.15c-0.04-0.06-0.05-0.14-0.06-0.21c-0.01-0.22-0.02-0.45-0.02-0.67c0-2.8,0-5.59,0-8.39
		c0-1.06,0.01-1.07,1.04-1.07c2.35-0.01,4.69,0,7.04,0c4.17,0,8.35,0,12.52,0c1.5,0,1.39-0.11,1.39,1.39c0,2.27,0,4.55,0,6.82
		c0,0.3,0.02,0.59,0.03,0.89c0,0.08,0.06,0.14,0.14,0.13c0.06-0.01,0.14-0.04,0.18-0.09c0.07-0.09,0.12-0.19,0.17-0.29
		c0.11-0.2,0.22-0.39,0.33-0.59c2.77-4.87,7.7-8.58,13.42-9.78c1.32-0.28,2.64-0.43,3.99-0.45c2.66-0.04,5.28,0.24,7.85,0.94
		c1.51,0.41,2.97,0.96,4.4,1.62C257.41,214.45,257.57,214.54,257.75,214.64z"/>
	<path class="st0" d="M127.07,241.23c0,8.61,0,17.21,0,25.82c0,0.41,0.02,0.82,0.03,1.23c0.01,0.2,0.16,0.35,0.35,0.36
		c1.23,0.08,2.45,0.15,3.68,0.22c0.6,0.03,1.19,0.04,1.79,0.07c0.41,0.02,0.82,0.07,1.22,0.11c0.22,0.02,0.35,0.16,0.36,0.35
		c0.01,0.11,0.02,0.22,0.02,0.33c0,2.98,0,5.96,0,8.94c0,0.15,0,0.3-0.04,0.44c-0.03,0.09-0.13,0.18-0.22,0.22
		c-0.1,0.05-0.22,0.06-0.33,0.06c-0.34,0.01-0.67,0.01-1.01,0.01c-9.28,0-18.55,0-27.83,0c-1.84,0-1.61,0.22-1.62-1.59
		c-0.01-2.27,0-4.55,0-6.82c0-0.34,0-0.67,0.01-1.01c0.01-0.28,0.14-0.43,0.38-0.45c0.67-0.07,1.33-0.14,2-0.21
		c0.78-0.08,1.56-0.15,2.33-0.23c0.52-0.06,1.02-0.2,1.5-0.41c0.8-0.35,1.32-0.96,1.59-1.78c0.14-0.42,0.24-0.86,0.25-1.31
		c0.01-0.37,0.02-0.75,0.02-1.12c0-11.81,0-23.62,0-35.44c0-0.41-0.01-0.82-0.02-1.23c-0.01-0.49-0.11-0.97-0.27-1.42
		c-0.25-0.72-0.74-1.19-1.48-1.4c-0.43-0.12-0.87-0.18-1.32-0.2c-1.38-0.07-2.75-0.15-4.13-0.23c-0.5-0.03-0.62-0.1-0.62-0.7
		c0-0.26,0-0.52,0-0.78c0-2.61,0-5.22,0-7.82c0-0.3,0-0.6,0.01-0.89c0-0.11,0-0.23,0.04-0.33c0.04-0.1,0.1-0.2,0.23-0.22
		c0.11-0.02,0.22-0.05,0.33-0.05c0.3-0.01,0.6-0.01,0.89-0.01c6.74,0,13.49,0,20.23,0c0.34,0,0.67,0,1.01,0.01
		c0.44,0.02,0.57,0.15,0.58,0.63c0.01,0.41,0.01,0.82,0.01,1.23C127.07,224.16,127.07,232.7,127.07,241.23z"/>
	<path class="st0" d="M353.01,325.82c-0.45,0.17-0.9,0.13-1.34,0.06c-0.09-0.02-0.2-0.12-0.24-0.21c-0.13-0.27-0.24-0.55-0.34-0.83
		c-1.57-4.26-3.15-8.52-4.72-12.79c-0.09-0.24-0.18-0.49-0.27-0.73c-0.07-0.2-0.22-0.33-0.3-0.28c-0.11,0.07-0.1,0.18-0.1,0.28
		c-0.01,0.34,0,0.67,0,1.01c0,4.02,0,8.05,0,12.07c0,0.37-0.01,0.74-0.02,1.12c-0.01,0.26-0.15,0.39-0.43,0.39
		c-0.3,0-0.59-0.03-0.88-0.06c-0.06-0.01-0.12-0.08-0.15-0.14c-0.04-0.06-0.05-0.14-0.06-0.21c-0.01-0.3-0.02-0.6-0.02-0.89
		c0-4.84,0-9.69,0-14.53c0-0.3,0-0.6,0.01-0.89c0.01-0.27,0.15-0.44,0.4-0.44c0.63-0.01,1.26,0,1.84,0
		c0.26,0.16,0.34,0.37,0.42,0.58c0.66,1.78,1.32,3.56,1.99,5.34c1.03,2.76,2.05,5.51,3.08,8.27c0.1,0.28,0.16,0.57,0.45,0.85
		c0.06-0.09,0.14-0.17,0.18-0.27c0.13-0.31,0.24-0.62,0.36-0.94c1.55-4.23,3.1-8.46,4.65-12.69c0.48-1.31,0.3-1.14,1.64-1.15
		c0.3,0,0.59,0.02,0.89,0.04c0.12,0.01,0.27,0.17,0.28,0.31c0.02,0.22,0.04,0.45,0.04,0.67c0,5.07,0,10.14,0,15.2
		c0,0.22-0.02,0.45-0.03,0.67c-0.01,0.11-0.19,0.29-0.3,0.29c-0.26,0.01-0.52,0.02-0.78,0.02c-0.32-0.01-0.46-0.15-0.48-0.49
		c-0.01-0.37-0.01-0.75-0.01-1.12c0-3.99,0-7.97,0-11.96c0-0.33-0.01-0.67-0.03-1c0-0.06-0.06-0.13-0.12-0.16
		c-0.08-0.04-0.14,0.01-0.17,0.09c-0.11,0.28-0.23,0.55-0.33,0.83c-1.09,2.97-2.19,5.94-3.28,8.91c-0.5,1.36-1,2.73-1.51,4.09
		C353.21,325.35,353.11,325.58,353.01,325.82z"/>
	<path class="st0" d="M482.43,325.9c-0.36-0.29-0.53-0.63-0.73-0.94c-2.81-4.26-5.62-8.52-8.43-12.78
		c-0.18-0.28-0.38-0.55-0.57-0.82c-0.04-0.05-0.17-0.11-0.18-0.1c-0.07,0.08-0.16,0.17-0.17,0.27c-0.02,0.37-0.02,0.74-0.02,1.12
		c0,3.91,0,7.82,0,11.74c0,0.41-0.02,0.82-0.04,1.23c-0.01,0.14-0.15,0.29-0.28,0.3c-0.26,0.01-0.52,0.03-0.78,0.02
		c-0.27-0.01-0.47-0.08-0.47-0.49c0-0.26-0.01-0.52-0.01-0.78c0-4.88,0-9.76,0-14.64c0-1.38-0.04-1.27,1.28-1.27
		c0.11,0,0.23,0,0.33,0.03c0.1,0.03,0.22,0.08,0.28,0.16c0.23,0.29,0.44,0.6,0.64,0.91c2.8,4.22,5.59,8.45,8.38,12.68
		c0.2,0.31,0.43,0.6,0.65,0.9c0.02,0.02,0.06,0.03,0.09,0.04c0.09,0.01,0.15-0.03,0.16-0.12c0.02-0.37,0.05-0.74,0.05-1.11
		c0-3.95,0-7.9,0-11.85c0-0.3,0-0.6,0-0.89c0.01-0.66,0.1-0.74,0.81-0.74c0.15,0,0.3,0.01,0.45,0.02c0.12,0.01,0.3,0.17,0.3,0.29
		c0.02,0.3,0.04,0.59,0.04,0.89c0,1.68,0,3.35,0,5.03c0,3.2,0,6.41,0,9.61c0,0.33-0.01,0.67-0.03,1c-0.01,0.19-0.17,0.32-0.38,0.34
		C483.33,325.95,482.85,325.95,482.43,325.9z"/>
	<path class="st0" d="M80.04,317.3c0-2.39,0-4.77,0-7.16c0-0.34,0-0.67,0.01-1.01c0.01-0.25,0.16-0.39,0.44-0.4
		c0.34-0.01,0.67,0,1.01-0.01c0.2,0,0.37,0.08,0.48,0.24c0.2,0.27,0.38,0.55,0.57,0.83c2.8,4.23,5.59,8.45,8.39,12.68
		c0.21,0.31,0.42,0.61,0.64,0.91c0.03,0.04,0.14,0.06,0.19,0.04c0.05-0.02,0.11-0.1,0.11-0.16c0.02-0.37,0.02-0.74,0.02-1.12
		c0-3.99,0-7.98,0-11.96c0-0.34,0-0.67,0.01-1.01c0.01-0.38,0.22-0.44,0.5-0.45c0.11-0.01,0.22-0.01,0.34-0.01
		c0.62,0,0.7,0.08,0.71,0.71c0.01,0.26,0,0.52,0,0.78c0,4.73,0,9.47,0,14.2c0,0.11,0,0.22,0,0.34c0,1.27,0.04,1.17-1.25,1.18
		c-0.11,0-0.22,0-0.33-0.02c-0.15-0.02-0.29-0.07-0.38-0.2c-0.19-0.28-0.38-0.55-0.57-0.83c-2.81-4.26-5.62-8.52-8.43-12.78
		c-0.18-0.28-0.39-0.54-0.59-0.81c-0.02-0.03-0.08-0.05-0.1-0.04c-0.06,0.03-0.16,0.07-0.16,0.12c-0.03,0.37-0.04,0.74-0.05,1.11
		c0,3.95,0,7.9,0,11.85c0,0.37,0,0.75-0.01,1.12c-0.01,0.33-0.14,0.45-0.49,0.46c-1.06,0.03-1.07,0.02-1.07-1.02
		C80.04,322.37,80.04,319.84,80.04,317.3z"/>
	<path class="st0" d="M139.96,317.5c0.07,0.07,0.11,0.13,0.18,0.17c0.99,0.57,1.43,1.49,1.58,2.57c0.1,0.7,0.13,1.41,0.18,2.11
		c0.03,0.45,0.03,0.89,0.05,1.34c0.03,0.56,0.1,1.12,0.31,1.64c0.25,0.6,0.04,0.58-0.35,0.59c-0.19,0.01-0.37,0.01-0.56,0.01
		c-0.5-0.01-0.64-0.11-0.75-0.63c-0.09-0.44-0.17-0.88-0.21-1.32c-0.09-0.96-0.15-1.93-0.21-2.9c-0.03-0.41-0.08-0.81-0.21-1.21
		c-0.28-0.86-0.86-1.38-1.72-1.58c-0.43-0.1-0.88-0.17-1.33-0.18c-1.64-0.02-3.28-0.01-4.91-0.01c-0.07,0-0.15,0.02-0.22,0.03
		c-0.13,0.02-0.29,0.16-0.3,0.29c-0.02,0.3-0.04,0.59-0.04,0.89c0,1.75,0,3.5,0,5.25c0,0.3,0,0.6-0.01,0.89
		c-0.01,0.33-0.15,0.46-0.48,0.46c-0.22,0-0.45,0-0.67-0.01c-0.2-0.01-0.36-0.16-0.37-0.34c-0.01-0.26-0.02-0.52-0.02-0.78
		c0-2.01,0-4.02,0-6.03c0-2.9,0-5.81,0-8.71c0-0.33,0.02-0.67,0.04-1c0.01-0.13,0.16-0.26,0.3-0.28c0.11-0.01,0.22-0.03,0.33-0.03
		c2.12,0,4.24-0.01,6.37,0.01c0.9,0.01,1.78,0.12,2.64,0.4c0.35,0.11,0.7,0.26,1.02,0.44c1.02,0.55,1.59,1.43,1.77,2.56
		c0.11,0.66,0.1,1.33,0.03,2c-0.11,1.06-0.59,1.91-1.44,2.54c-0.27,0.2-0.56,0.36-0.84,0.56
		C140.06,317.3,140.02,317.42,139.96,317.5z M131.46,313.36c0,0.85,0,1.71,0,2.56c0,0.18,0.01,0.37,0.05,0.55
		c0.02,0.09,0.12,0.18,0.21,0.23c0.09,0.05,0.21,0.06,0.32,0.06c1.67,0,3.34,0,5.01-0.01c0.19,0,0.37-0.01,0.56-0.04
		c0.59-0.09,1.17-0.23,1.69-0.53c0.97-0.57,1.51-1.41,1.57-2.53c0.01-0.22,0.01-0.45,0-0.67c-0.06-1.2-0.66-2.02-1.75-2.49
		c-0.27-0.12-0.56-0.21-0.85-0.25c-0.51-0.08-1.03-0.16-1.55-0.17c-1.52-0.02-3.05-0.01-4.57-0.01c-0.15,0-0.3,0.01-0.44,0.07
		c-0.09,0.03-0.18,0.14-0.21,0.23c-0.05,0.18-0.05,0.37-0.06,0.55C131.46,311.72,131.46,312.54,131.46,313.36z"/>
	<path class="st0" d="M328.65,317.45c0.05,0.07,0.08,0.15,0.13,0.18c1.09,0.6,1.52,1.6,1.67,2.75c0.09,0.66,0.11,1.34,0.16,2
		c0.02,0.3,0.03,0.6,0.04,0.89c0.01,0.86,0.16,1.7,0.48,2.49c-0.2,0.2-0.44,0.14-0.65,0.15c-1.05,0.03-1.07-0.01-1.24-0.99
		c-0.16-0.91-0.2-1.85-0.28-2.78c-0.03-0.37-0.01-0.75-0.06-1.12c-0.04-0.37-0.1-0.74-0.19-1.1c-0.24-0.92-0.86-1.46-1.77-1.66
		c-0.43-0.1-0.88-0.16-1.33-0.17c-1.6-0.02-3.2-0.01-4.8-0.01c-0.07,0-0.15,0.01-0.22,0.02c-0.2,0.02-0.36,0.17-0.38,0.35
		c-0.02,0.26-0.03,0.52-0.03,0.78c0,1.79,0,3.58,0,5.36c0,0.33-0.02,0.67-0.03,1c-0.01,0.14-0.15,0.28-0.29,0.28
		c-0.3,0.01-0.59,0.01-0.89,0c-0.19-0.01-0.32-0.15-0.33-0.38c-0.01-0.19-0.02-0.37-0.02-0.56c0-5.1,0-10.21,0-15.31
		c0-0.19,0.01-0.37,0.02-0.56c0.01-0.19,0.16-0.33,0.37-0.34c0.26-0.01,0.52-0.02,0.78-0.02c1.79,0,3.58,0.01,5.36,0
		c0.75,0,1.49,0.07,2.22,0.19c0.63,0.1,1.23,0.29,1.8,0.58c1.11,0.57,1.73,1.49,1.92,2.71c0.11,0.7,0.1,1.41,0,2.12
		c-0.14,0.92-0.56,1.69-1.3,2.27c-0.29,0.23-0.62,0.41-0.93,0.62C328.78,317.28,328.72,317.37,328.65,317.45z M320.17,313.26
		c0,0.89,0,1.78,0,2.67c0,0.18,0.01,0.37,0.05,0.55c0.02,0.09,0.13,0.16,0.22,0.22c0.06,0.04,0.14,0.04,0.21,0.04
		c1.75,0,3.49,0,5.24-0.01c0.53,0,1.03-0.12,1.52-0.3c1.04-0.37,1.76-1.07,2.08-2.16c0.11-0.4,0.12-0.81,0.1-1.22
		c-0.05-1.29-0.68-2.16-1.88-2.63c-0.21-0.08-0.42-0.16-0.64-0.19c-0.55-0.08-1.1-0.17-1.66-0.18c-1.52-0.02-3.05-0.01-4.57-0.01
		c-0.11,0-0.22,0.02-0.33,0.03c-0.14,0.02-0.29,0.15-0.31,0.28c-0.02,0.18-0.04,0.37-0.04,0.55
		C320.17,311.7,320.17,312.48,320.17,313.26z"/>
	<path class="st0" d="M200.05,317.31c0-2.42,0-4.84,0-7.26c0-0.33,0.02-0.67,0.04-1c0.01-0.14,0.16-0.27,0.3-0.29
		c0.07-0.01,0.15-0.02,0.22-0.02c2.09,0,4.17-0.01,6.25,0.02c0.86,0.01,1.71,0.12,2.53,0.38c1.56,0.5,2.75,1.44,3.51,2.91
		c0.43,0.84,0.73,1.71,0.91,2.63c0.42,2.19,0.37,4.37-0.31,6.51c-0.28,0.89-0.71,1.72-1.31,2.45c-0.66,0.79-1.46,1.37-2.42,1.74
		c-0.7,0.26-1.42,0.44-2.17,0.5c-0.41,0.03-0.82,0.06-1.23,0.06c-1.86,0.01-3.72,0.01-5.58,0.01c-0.11,0-0.22-0.01-0.33-0.02
		c-0.21-0.02-0.36-0.15-0.37-0.34c-0.02-0.33-0.03-0.67-0.03-1C200.05,322.15,200.05,319.73,200.05,317.31z M201.62,317.3
		c0,2.05,0,4.1,0,6.15c0,0.3,0.01,0.6,0.05,0.89c0.01,0.08,0.13,0.16,0.22,0.22c0.06,0.04,0.14,0.04,0.22,0.04
		c1.6-0.01,3.2,0,4.8-0.04c0.48-0.01,0.96-0.11,1.43-0.23c1.56-0.42,2.72-1.33,3.38-2.84c0.36-0.83,0.59-1.68,0.69-2.58
		c0.12-1.12,0.11-2.23-0.01-3.35c-0.12-1.16-0.47-2.26-1.12-3.24c-0.53-0.8-1.24-1.38-2.12-1.75c-0.48-0.2-0.99-0.31-1.51-0.37
		c-1.82-0.21-3.65-0.13-5.47-0.13c-0.07,0-0.15,0.02-0.22,0.03c-0.14,0.02-0.29,0.15-0.3,0.29c-0.02,0.3-0.04,0.59-0.04,0.89
		C201.62,313.28,201.62,315.29,201.62,317.3z"/>
	<path class="st0" d="M226.94,317.4c0-2.42,0-4.84,0-7.26c0-0.34,0.01-0.67,0.02-1.01c0.01-0.2,0.16-0.36,0.34-0.37
		c0.3-0.01,0.59-0.03,0.89-0.03c1.75,0,3.5,0,5.25,0c1.34,0,2.68,0,4.02,0c0.22,0,0.44,0.03,0.66,0.06
		c0.06,0.01,0.13,0.08,0.15,0.14c0.11,0.29,0.1,0.59,0.02,0.88c-0.02,0.08-0.15,0.18-0.23,0.19c-0.33,0.03-0.67,0.05-1,0.05
		c-2.38,0-4.77,0-7.15,0c-1.51,0-1.41-0.08-1.41,1.38c0,1.27,0,2.53,0,3.8c0,0.26,0.02,0.52,0.03,0.78c0.01,0.14,0.15,0.29,0.28,0.3
		c0.33,0.02,0.67,0.04,1,0.05c2.09,0,4.17,0,6.26,0c0.33,0,0.67,0.02,1,0.03c0.15,0.01,0.29,0.14,0.3,0.27
		c0.01,0.18,0.03,0.37,0.02,0.56c0,0.28-0.14,0.44-0.38,0.45c-0.33,0.02-0.67,0.02-1,0.02c-2.05,0-4.1,0-6.15,0
		c-0.33,0-0.67,0.02-1,0.04c-0.18,0.01-0.33,0.19-0.35,0.37c-0.01,0.15-0.02,0.3-0.02,0.45c0,1.75,0,3.5,0,5.25
		c0,0.07,0,0.15,0,0.22c0.02,0.44,0.14,0.56,0.63,0.57c0.3,0.01,0.6,0.01,0.89,0.01c2.38,0,4.77,0,7.15,0c0.33,0,0.67,0.01,1,0.02
		c0.25,0.01,0.39,0.16,0.39,0.44c0.01,0.18-0.01,0.37-0.02,0.56c-0.01,0.14-0.14,0.27-0.29,0.28c-0.19,0.01-0.37,0.03-0.56,0.03
		c-0.52,0-1.04,0-1.56,0c-2.53,0-5.07,0-7.6,0c-0.26,0-0.52,0-0.78,0c-0.77-0.01-0.82-0.05-0.82-0.83
		C226.94,322.54,226.94,319.97,226.94,317.4C226.94,317.4,226.94,317.4,226.94,317.4z"/>
	<path class="st0" d="M61.63,325.93c-1.64,0-3.28,0-4.92,0c-0.22,0-0.44-0.03-0.66-0.07c-0.06-0.01-0.12-0.09-0.15-0.16
		c-0.03-0.06-0.04-0.14-0.04-0.22c-0.01-0.34-0.01-0.67-0.01-1.01c0-4.77,0-9.54,0-14.3c0-0.37,0.02-0.74,0.03-1.12
		c0.01-0.15,0.14-0.29,0.28-0.3c0.19-0.01,0.37-0.03,0.56-0.03c3.24,0,6.48,0,9.72,0c0.78,0,0.83,0.07,0.81,0.82
		c0,0.07-0.02,0.15-0.03,0.22c-0.01,0.13-0.11,0.21-0.21,0.23c-0.29,0.04-0.59,0.05-0.89,0.05c-2.46,0-4.92,0-7.37,0
		c-0.33,0-0.67,0.02-1,0.04c-0.14,0.01-0.28,0.16-0.3,0.29c-0.01,0.11-0.03,0.22-0.03,0.33c0,1.68,0,3.35,0,5.03
		c0,0.11,0,0.23,0.04,0.33c0.04,0.09,0.14,0.2,0.22,0.22c0.29,0.04,0.59,0.06,0.89,0.06c2.05,0,4.1,0,6.15,0c0.26,0,0.52,0,0.78,0
		c0.78,0.01,0.85,0.08,0.82,0.82c-0.01,0.29-0.06,0.47-0.46,0.49c-0.33,0.02-0.67,0.02-1,0.02c-2.12,0-4.25,0-6.37,0
		c-1.06,0-1.07,0.01-1.07,1.04c0,1.64,0,3.28,0,4.92c0,0.22,0.01,0.45,0.05,0.67c0.02,0.09,0.13,0.21,0.21,0.22
		c0.25,0.05,0.52,0.06,0.77,0.06c1.53,0.01,3.05,0,4.58,0c1.23,0,2.46,0,3.69,0c0.15,0,0.3,0.01,0.45,0.02
		c0.15,0.01,0.3,0.14,0.3,0.28c0.01,0.26,0.01,0.52-0.02,0.77c-0.01,0.08-0.14,0.19-0.23,0.2c-0.29,0.04-0.59,0.05-0.89,0.05
		C64.76,325.94,63.2,325.94,61.63,325.93C61.63,325.93,61.63,325.93,61.63,325.93z"/>
	<path class="st0" d="M380.63,308.75c0.34,0.26,0.4,0.61,0.52,0.92c0.73,1.87,1.44,3.75,2.16,5.63c1.23,3.2,2.46,6.39,3.68,9.59
		c0.39,1.03,0.4,1.06-0.69,1.04c-0.11,0-0.22-0.02-0.33-0.04c-0.04-0.01-0.07-0.03-0.11-0.05c-0.19-0.13-0.25-0.36-0.32-0.56
		c-0.45-1.22-0.9-2.45-1.35-3.67c-0.1-0.28-0.21-0.56-0.33-0.83c-0.06-0.14-0.19-0.23-0.35-0.24c-0.19-0.01-0.37-0.03-0.56-0.03
		c-2.09,0-4.17,0-6.26,0c-0.11,0-0.22,0.01-0.34,0c-0.29-0.01-0.5,0.11-0.61,0.38c-0.12,0.31-0.24,0.62-0.36,0.94
		c-0.42,1.11-0.84,2.23-1.27,3.34c-0.07,0.17-0.13,0.35-0.22,0.51c-0.05,0.09-0.16,0.19-0.25,0.19c-0.37,0.02-0.74,0-1.11,0
		c-0.1,0-0.19-0.16-0.16-0.25c0.07-0.21,0.14-0.42,0.22-0.63c2.01-5.13,4.03-10.26,6.05-15.38c0.05-0.14,0.12-0.27,0.17-0.42
		c0.13-0.37,0.38-0.51,0.77-0.49C379.94,308.75,380.32,308.74,380.63,308.75z M379.77,310.36c-0.08,0.15-0.16,0.28-0.21,0.41
		c-0.98,2.61-1.95,5.22-2.92,7.83c-0.04,0.1-0.05,0.21-0.08,0.32c-0.02,0.07,0.11,0.23,0.19,0.23c0.18,0.02,0.37,0.04,0.55,0.04
		c1.71,0,3.42,0,5.13,0c0.15,0,0.3-0.01,0.44-0.02c0.14-0.01,0.25-0.18,0.21-0.33c-0.07-0.25-0.15-0.5-0.24-0.74
		c-0.87-2.33-1.73-4.66-2.6-7c-0.06-0.17-0.12-0.35-0.21-0.52C379.99,310.51,379.88,310.45,379.77,310.36z"/>
	<path class="st0" d="M267.27,317.35c0-2.38,0-4.77,0-7.15c0-0.3,0-0.6,0.01-0.89c0.01-0.49,0.22-0.55,0.52-0.57
		c0.19-0.01,0.37-0.01,0.56-0.01c2.98,0,5.96,0,8.94,0c0.26,0,0.52,0.02,0.78,0.04c0.07,0.01,0.16,0.06,0.18,0.12
		c0.13,0.32,0.11,0.66,0.02,0.98c-0.01,0.05-0.11,0.12-0.17,0.12c-0.33,0.03-0.67,0.05-1,0.05c-2.2,0-4.4,0-6.59,0
		c-1.82,0.01-1.64-0.18-1.65,1.59c-0.01,1.08,0,2.16,0,3.24c0,0.3,0,0.6,0.01,0.89c0.01,0.42,0.13,0.55,0.51,0.56
		c0.3,0.01,0.6,0.01,0.89,0.01c1.83,0,3.65,0,5.48,0c0.26,0,0.52,0,0.78,0c0.92-0.01,0.95,0.07,0.92,0.94
		c-0.01,0.2-0.15,0.35-0.34,0.36c-0.33,0.02-0.67,0.03-1,0.03c-1.97,0-3.95,0-5.92,0c-0.33,0-0.67,0.03-1,0.04
		c-0.1,0-0.28,0.2-0.29,0.31c-0.01,0.3-0.03,0.6-0.03,0.89c0,1.79,0,3.58,0,5.37c0,0.26,0,0.52,0,0.78
		c-0.01,0.8-0.07,0.86-0.92,0.84c-0.11,0-0.22-0.02-0.33-0.02c-0.12-0.01-0.3-0.17-0.31-0.29c-0.01-0.33-0.03-0.67-0.03-1
		C267.27,322.2,267.27,319.77,267.27,317.35z"/>
	<path class="st0" d="M110.9,317.93c0-2.2,0-4.39,0-6.59c0-0.33-0.03-0.67-0.05-1c-0.01-0.13-0.12-0.21-0.21-0.23
		c-0.22-0.04-0.44-0.06-0.66-0.06c-1-0.01-2.01,0-3.01,0c-0.3,0-0.6,0-0.89-0.01c-0.49-0.01-0.6-0.11-0.6-0.58c0-0.07,0-0.15,0-0.22
		c0.01-0.34,0.15-0.49,0.46-0.5c0.3-0.01,0.6-0.01,0.89-0.01c1.38,0,2.75,0,4.13,0c1.93,0,3.87,0,5.8,0c0.3,0,0.59,0.02,0.89,0.03
		c0.13,0.01,0.29,0.16,0.29,0.3c0,0.26,0,0.52-0.02,0.77c0,0.06-0.09,0.14-0.15,0.15c-0.22,0.04-0.44,0.07-0.66,0.07
		c-1.15,0.01-2.31,0.01-3.46,0c-1.18,0-1.17,0.01-1.17,1.17c0,4.43,0,8.86,0,13.29c0,0.37-0.02,0.74-0.03,1.11
		c-0.01,0.14-0.15,0.28-0.29,0.28c-0.3,0.01-0.59,0.01-0.89,0c-0.18,0-0.32-0.17-0.33-0.38c-0.01-0.33-0.02-0.67-0.02-1
		C110.9,322.33,110.9,320.13,110.9,317.93z"/>
	<path class="st0" d="M426.87,317.4c0-2.46,0-4.92,0-7.38c0-0.33,0.01-0.67,0.05-1c0.01-0.09,0.12-0.21,0.2-0.23
		c0.36-0.1,0.74-0.08,1.11,0c0.06,0.01,0.12,0.1,0.14,0.16c0.04,0.1,0.05,0.22,0.06,0.33c0.01,0.26,0.01,0.52,0.01,0.78
		c0,4.84,0,9.69,0,14.53c0,0.33-0.01,0.67-0.03,1c-0.01,0.15-0.14,0.29-0.27,0.31c-0.19,0.01-0.37,0.03-0.56,0.03
		c-0.63,0-0.7-0.07-0.71-0.71C426.87,322.61,426.87,320.01,426.87,317.4C426.87,317.4,426.87,317.4,426.87,317.4z"/>
	<path class="st0" d="M448.85,307.26c0.03-0.11,0.03-0.24,0.09-0.31c0.68-0.87,1.37-1.74,2.07-2.6c0.14-0.18,0.33-0.29,0.57-0.29
		c0.26,0,0.52-0.01,0.78,0.01c0.1,0.01,0.22,0.05,0.28,0.12c0.1,0.1,0,0.2-0.06,0.29c-0.04,0.06-0.1,0.11-0.15,0.16
		c-0.78,0.79-1.57,1.57-2.33,2.37c-0.26,0.28-0.55,0.35-0.9,0.32C449.09,307.31,448.99,307.28,448.85,307.26z"/>
</g>
</svg>
