<?xml version="1.0" encoding="UTF-8"?>
<svg width="25px" height="23px" viewBox="0 0 25 23" version="1.1" xmlns="http://www.w3.org/2000/svg" xmlns:xlink="http://www.w3.org/1999/xlink">
    <title>cart-icon</title>
    <defs>
        <filter id="filter-1">
            <feColorMatrix in="SourceGraphic" type="matrix" values="0 0 0 0 1.000000 0 0 0 0 1.000000 0 0 0 0 1.000000 0 0 0 1.000000 0"></feColorMatrix>
        </filter>
    </defs>
    <g id="Page-1" stroke="none" stroke-width="1" fill="none" fill-rule="evenodd">
        <g id="VERSION--DEF-DEF-374-3" transform="translate(-335.000000, -59.000000)">
            <g id="cart-icon" transform="translate(0.000000, 45.000000)" filter="url(#filter-1)">
                <g transform="translate(335.000000, 14.000000)">
                    <g id="Group" transform="translate(0.000000, 0.959501)" fill="#000000" fill-rule="nonzero">
                        <path d="M0.833339833,0.0404985417 C0.373086243,0.0404985417 0,0.384475771 0,0.808790756 C0,1.23310574 0.373086243,1.57708297 0.833339833,1.57708297 L3.60247254,1.57708297 C4.98170552,4.72643825 6.3402439,7.88155059 7.70839346,11.0366681 L6.44971697,13.8297432 C6.34427171,14.0626126 6.37393861,14.3433977 6.52613424,14.5531159 C6.67835765,14.7628341 6.94858198,14.8952108 7.22227856,14.8942247 L21.1112758,14.8942247 C21.5515292,14.899795 21.9564768,14.5318086 21.9564768,14.1258686 C21.9564768,13.7199286 21.5515292,13.3518398 21.1112758,13.3575764 L8.47228831,13.3575764 L9.19279393,11.7729481 L22.5696205,10.7885865 C22.9197621,10.7632329 23.236709,10.5117708 23.3161541,10.1963613 L24.9828349,3.53782873 C25.0918357,3.08934327 24.6653602,2.59997442 24.1668563,2.60147259 L5.84204557,2.60147259 L4.93926075,0.520681176 C4.81564867,0.239020128 4.49625729,0.0404985417 4.16669917,0.0404985417 L0.833339833,0.0404985417 Z M6.51046745,4.13805702 L23.1165136,4.13805702 L21.8230869,9.30801313 L9.15807143,10.2363637 L6.51046745,4.13805702 Z M10.000078,15.9185504 C8.47581611,15.9185504 7.22227856,17.0742156 7.22227856,18.4795245 C7.22227856,19.8848078 8.47581611,21.0404985 10.000078,21.0404985 C11.5243399,21.0404985 12.7778774,19.8848078 12.7778774,18.4795245 C12.7778774,17.0742412 11.5243399,15.9185504 10.000078,15.9185504 Z M18.3334763,15.9185504 C16.8092144,15.9185504 15.5556769,17.0742412 15.5556769,18.4795245 C15.5556769,19.8848078 16.8092144,21.0404985 18.3334763,21.0404985 C19.8577382,21.0404985 21.1112758,19.8848078 21.1112758,18.4795245 C21.1112758,17.0742156 19.8577382,15.9185504 18.3334763,15.9185504 Z M10.000078,17.4551349 C10.6236106,17.4551349 11.1111978,17.9046626 11.1111978,18.4795245 C11.1111978,19.0543863 10.6236106,19.5039141 10.000078,19.5039141 C9.37660092,19.5039141 8.88895822,19.0543607 8.88895822,18.4795245 C8.88895822,17.9046883 9.37660092,17.4551349 10.000078,17.4551349 Z M18.3334763,17.4551349 C18.9569534,17.4551349 19.4445961,17.9046883 19.4445961,18.4795245 C19.4445961,19.0543607 18.9569534,19.5039141 18.3334763,19.5039141 C17.7099437,19.5039141 17.2223566,19.0543863 17.2223566,18.4795245 C17.2223566,17.9046626 17.7099437,17.4551349 18.3334763,17.4551349 Z" id="Shape"></path>
                    </g>
                </g>
            </g>
        </g>
    </g>
</svg>