<?xml version="1.0" encoding="UTF-8"?>
<svg width="22px" height="20px" viewBox="0 0 22 20" version="1.1" xmlns="http://www.w3.org/2000/svg" xmlns:xlink="http://www.w3.org/1999/xlink">
    <title>noun_Heart_1212629</title>
    <g id="Page-1" stroke="none" stroke-width="1" fill="none" fill-rule="evenodd">
        <g id="VERSION-2-DEF" transform="translate(-302.000000, -1223.000000)" fill="#FFFFFF" fill-rule="nonzero" stroke="#FFFFFF">
            <g id="header" transform="translate(49.000000, 1208.000000)">
                <g id="noun_Heart_1212629" transform="translate(253.000000, 15.000000)">
                    <path d="M6.31724348,0.5 C8.02736535,0.5 9.60896565,1.40926446 10.5897353,2.89952244 C10.7217049,3.10004736 10.8397102,3.30640256 10.9434751,3.5170309 L10.9298215,3.52662226 L10.9298215,3.52662226 L10.7423098,3.65813196 C10.2971348,2.76538476 9.66092185,2.0518471 8.90640427,1.56029747 C8.14259996,1.06269778 7.2568401,0.791383497 6.31724348,0.791383497 C6.01559283,0.791383497 5.70956433,0.820018411 5.4081861,0.877608855 C3.85589953,1.17409311 2.62381452,2.07004118 1.75943792,3.55622375 C0.49414868,5.7326602 0.409400028,7.62804207 1.43214537,9.52187954 C2.02640513,10.6212639 2.80560361,11.7048812 3.81877184,12.8340767 C5.66958779,14.8961918 7.8610858,16.8625382 11.3022412,19.0067635 C13.8524885,17.089276 15.9462805,15.2449182 17.7029068,13.3700323 C18.6961123,12.3088402 19.8164531,11.0086828 20.6153438,9.43393554 C20.9547706,8.76280718 21.2857357,7.96083653 21.2674916,7.11013156 C21.2193799,5.00749526 20.4219851,3.27757465 18.9045466,1.96558287 C18.0382778,1.21510882 16.9211314,0.800890299 15.7586248,0.800890299 C14.4135479,0.800890299 13.1163666,1.357554 12.1983772,2.32903215 C11.9303837,2.61297508 11.698669,2.93214106 11.1523353,3.35953889 C11.2326498,3.20532216 11.3244159,3.0522357 11.4248821,2.89980122 C11.6165881,2.60893121 11.8229671,2.3462361 12.0497297,2.10723951 C13.0090559,1.091653 14.3610635,0.509506803 15.7583795,0.509506803 C16.9646727,0.509506803 18.1285627,0.941316882 19.0355515,1.72592909 C20.6233842,3.10057267 21.4491151,4.91076027 21.4991293,7.10139083 C21.5208913,8.08011762 21.1379429,8.94302476 20.8125054,9.58649736 C19.9853254,11.2160157 18.8510368,12.5242417 17.8523733,13.5904965 C16.0443598,15.520311 13.8888155,17.4110745 11.2625538,19.3741813 C7.84909828,17.2073429 5.58106302,15.1839408 3.6654449,13.0503498 C2.64255642,11.9104895 1.84877284,10.8092712 1.23953041,9.68309287 C0.15393081,7.67344986 0.276951856,5.61362294 1.57094992,3.38692455 C2.46719099,1.84676867 3.7442434,0.900821138 5.37534665,0.589625755 C5.68797338,0.530244989 6.0048345,0.5 6.31724348,0.5 Z" id="Shape"></path>
                </g>
            </g>
        </g>
    </g>
</svg>