<?xml version="1.0" encoding="UTF-8"?>
<svg width="21px" height="21px" viewBox="0 0 21 21" version="1.1" xmlns="http://www.w3.org/2000/svg" xmlns:xlink="http://www.w3.org/1999/xlink">
    <title>profile-icon</title>
    <defs>
        <filter id="filter-1">
            <feColorMatrix in="SourceGraphic" type="matrix" values="0 0 0 0 1.000000 0 0 0 0 1.000000 0 0 0 0 1.000000 0 0 0 1.000000 0"></feColorMatrix>
        </filter>
    </defs>
    <g id="Page-1" stroke="none" stroke-width="1" fill="none" fill-rule="evenodd">
        <g id="VERSION--DEF-DEF-374-3" transform="translate(-304.000000, -60.000000)">
            <g id="profile-icon" transform="translate(0.000000, 45.000000)" filter="url(#filter-1)">
                <g transform="translate(304.000000, 15.000000)" id="Group" fill="#000000" fill-rule="nonzero">
                    <path d="M10.5,20.9171053 C16.2473684,20.9171053 20.9171053,16.2473684 20.9171053,10.5 C20.9171053,4.75263158 16.2473684,0.0828947368 10.5,0.0828947368 C4.75263158,0.0828947368 0.0828947368,4.75263158 0.0828947368,10.5 C0.0828947368,16.2473684 4.75263158,20.9171053 10.5,20.9171053 Z M4.75263158,17.0763158 C6.32763158,15.1973684 8.37236842,14.175 10.5,14.175 C12.6276316,14.175 14.6723684,15.1973684 16.2473684,17.0763158 C14.7276316,18.4302632 12.7105263,19.2592105 10.5,19.2592105 C8.28947368,19.2592105 6.27236842,18.4302632 4.75263158,17.0763158 Z M10.5,1.74078947 C15.3355263,1.74078947 19.2592105,5.66447368 19.2592105,10.5 C19.2592105,12.5171053 18.5684211,14.3960526 17.4078947,15.8605263 C15.5013158,13.7052632 13.0973684,12.5171053 10.5,12.5171053 C7.90263158,12.5171053 5.49868421,13.7052632 3.59210526,15.8605263 C2.43157895,14.3684211 1.74078947,12.5171053 1.74078947,10.5 C1.74078947,5.66447368 5.66447368,1.74078947 10.5,1.74078947 Z" id="Shape"></path>
                    <path d="M10.5,11.6881579 C12.8210526,11.6881579 14.7,9.80921053 14.7,7.48815789 C14.7,5.16710526 12.8210526,3.28815789 10.5,3.28815789 C8.17894737,3.28815789 6.3,5.16710526 6.3,7.48815789 C6.3,9.80921053 8.17894737,11.6881579 10.5,11.6881579 Z M10.5,4.94605263 C11.9092105,4.94605263 13.0421053,6.07894737 13.0421053,7.48815789 C13.0421053,8.89736842 11.9092105,10.0302632 10.5,10.0302632 C9.09078947,10.0302632 7.95789474,8.89736842 7.95789474,7.48815789 C7.95789474,6.10657895 9.09078947,4.94605263 10.5,4.94605263 Z" id="Shape"></path>
                </g>
            </g>
        </g>
    </g>
</svg>