<?xml version="1.0" encoding="utf-8"?>
<!-- Generator: Adobe Illustrator 19.2.1, SVG Export Plug-In . SVG Version: 6.00 Build 0)  -->
<svg version="1.1" id="Capa_1" xmlns="http://www.w3.org/2000/svg" xmlns:xlink="http://www.w3.org/1999/xlink" x="0px" y="0px"
	 viewBox="0 0 260 50" style="enable-background:new 0 0 260 50;" xml:space="preserve">
<style type="text/css">
	.st0{fill:#FFFFFF;}
	.st1{fill-rule:evenodd;clip-rule:evenodd;fill:#FFD500;}
	.st2{fill-rule:evenodd;clip-rule:evenodd;fill:#009640;}
	.st3{fill:#009640;}
	.st4{fill:#00953A;}
	.st5{fill:#FFD500;}
</style>
<g>
	<g>
		<rect x="125.6" y="7.7" class="st0" width="131.9" height="34.3" fill="none"/>
		<path class="st0" d="M191.6,24.9"/>
	</g>
	<rect x="157.5" y="10.1" class="st1" width="97.7" height="29.4" fill="none"/>
	<g>
		<path class="st2" d="M169.6,24.9c0-2.7,2.1-4.9,4.8-4.9c2.6,0,4.7,2.2,4.7,4.9c0,2.7-2.1,4.9-4.7,4.9
			C171.8,29.7,169.6,27.6,169.6,24.9z M164.8,24.9c0-5.4,4.3-9.8,9.6-9.8c5.3,0,9.6,4.4,9.6,9.8c0,5.4-4.3,9.8-9.6,9.8
			C169.1,34.7,164.8,30.3,164.8,24.9z"/>
		<path class="st2" d="M201.6,25.6v-8.2c0-1.3,1.1-2.4,2.4-2.4c1.3,0,2.4,1.1,2.4,2.4v14.8c0,1.3-1.1,2.4-2.4,2.4
			c-0.7,0-1.3-0.3-1.7-0.7l-8.5-9.9v8.2c0,1.3-1.1,2.4-2.4,2.4c-1.3,0-2.4-1.1-2.4-2.4l0-14.8c0-1.3,1.1-2.4,2.4-2.4
			c0.8,0,1.4,0.3,1.8,0.9L201.6,25.6z"/>
		<path class="st2" d="M226.7,16.9c0.6,0.5,1.1,1.3,1.1,2c0,1.4-1.1,2.5-2.5,2.5c-0.6,0-1.1-0.2-1.5-0.5c-0.8-0.6-1.7-0.9-2.7-0.9
			c-2.6,0-4.8,2.2-4.8,4.9c0,2.7,2.1,4.9,4.8,4.9c1,0,2.1-0.5,2.9-1c0.4-0.2,0.9-0.4,1.4-0.4c1.4,0,2.5,1.1,2.5,2.5
			c0,0.9-0.4,1.5-1,2c-1.6,1.2-3.6,1.9-5.7,1.9c-5.3,0-9.6-4.4-9.6-9.8c0-5.4,4.3-9.8,9.6-9.8C223.2,15,225.2,15.7,226.7,16.9z"/>
		<path class="st2" d="M243,24.8c0,1.3-1.1,2.4-2.5,2.4l-3,0v2.6h7.9c1.3,0,2.4,1.1,2.4,2.4c0,1.3-1.1,2.4-2.5,2.4h-10.2
			c-1.3,0-2.4-1.1-2.4-2.4l0-7.4l0-7.4c0-1.3,1.1-2.5,2.4-2.5h10.2c1.3,0,2.5,1.1,2.5,2.4c0,1.3-1.1,2.4-2.4,2.4h-7.9v2.5l3,0
			C241.9,22.4,243,23.5,243,24.8z"/>
	</g>
	<g>
		<rect x="128" y="10.1" class="st3" width="29.4" height="29.4" fill="none"/>
		<path class="st4" d="M142.8,24.9"/>
	</g>
	<g>
		<path class="st5" d="M143.8,28c-0.5,0.3-1.2,0.1-1.5-0.4l-3.5-6.2c-0.3-0.5-0.1-1.3,0.4-1.6c0.5-0.3,1.2-0.1,1.5,0.4l3.5,6.2
			C144.6,26.9,144.4,27.6,143.8,28z"/>
		<circle class="st5" cx="140" cy="16.9" r="2"/>
		<path class="st5" d="M144.4,34.7c-0.5,0.3-1.2,0.1-1.5-0.4l-2.6-4.5c0-0.1-0.2-0.2-0.3-0.2c-0.1,0-0.2,0.1-0.3,0.2l-2.6,4.5
			c-0.3,0.6-1,0.7-1.5,0.4c-0.5-0.3-0.7-1-0.4-1.6l4.1-7c0.1-0.3,0.4-0.4,0.7-0.4h0c0.3,0,0.6,0.2,0.7,0.4l4.1,7
			C145.1,33.6,145,34.3,144.4,34.7z"/>
		<polygon class="st5" points="149.8,34.8 144.7,26 145.4,25.7 150.4,34.4 		"/>
	</g>
</g>
<g>
	<path class="st0" d="M2.9,34.1C2.4,33.7,2,33,2,32.2c0-1.3,1-2.3,2.3-2.3c0.6,0,1,0.2,1.4,0.5c1,0.7,1.8,1.1,2.9,1.1
		c1.9,0,3-1.1,3-3.6V16.1c0-1.3,1.1-2.4,2.4-2.4c1.3,0,2.4,1.1,2.4,2.4v12.1c0,2.6-0.7,4.5-2.1,5.8c-1.3,1.3-3.3,2-5.7,2
		C6.2,36,4.3,35.1,2.9,34.1z"/>
	<path class="st0" d="M18.8,26.3V16.1c0-1.3,1.1-2.4,2.4-2.4c1.3,0,2.4,1.1,2.4,2.4v10.1c0,3.6,1.8,5.4,4.7,5.4
		c2.9,0,4.7-1.8,4.7-5.2V16.1c0-1.3,1.1-2.4,2.4-2.4c1.3,0,2.4,1.1,2.4,2.4v10.1c0,6.6-3.7,9.8-9.6,9.8C22.3,36,18.8,32.7,18.8,26.3
		z"/>
	<path class="st0" d="M40.5,33.3v-17c0-1.3,1.1-2.4,2.4-2.4H55c1.2,0,2.1,1,2.1,2.1c0,1.2-1,2.1-2.1,2.1h-9.7v4.4h8.3
		c1.2,0,2.2,1,2.2,2.1c0,1.2-1,2.1-2.2,2.1h-8.3v4.6h9.9c1.2,0,2.2,1,2.2,2.1c0,1.2-1,2.1-2.2,2.1H42.9
		C41.5,35.7,40.5,34.6,40.5,33.3z"/>
	<path class="st0" d="M58.2,24.8L58.2,24.8c0-6.3,4.8-11.3,11.4-11.3c3.3,0,5.5,0.7,7.4,2.1c0.5,0.3,1,1,1,1.9
		c0,1.3-1.1,2.4-2.4,2.4c-0.7,0-1.1-0.2-1.5-0.5c-1.3-0.9-2.7-1.5-4.8-1.5c-3.5,0-6.3,3.1-6.3,6.8v0.1c0,4,2.7,6.9,6.6,6.9
		c1.7,0,3.3-0.4,4.5-1.3v-3.1h-3.2c-1.2,0-2.1-0.9-2.1-2.1c0-1.2,0.9-2.1,2.1-2.1h5.5c1.3,0,2.4,1.1,2.4,2.4v5.3
		c0,1.4-0.5,2.4-1.7,3.1C75.5,35,72.9,36,69.7,36C62.9,36,58.2,31.3,58.2,24.8z"/>
	<path class="st0" d="M80.5,24.8L80.5,24.8c0-6.3,4.9-11.3,11.6-11.3c6.7,0,11.6,5,11.6,11.2v0.1C103.6,31,98.7,36,92,36
		C85.3,36,80.5,31,80.5,24.8z M98.6,24.8L98.6,24.8c0-3.8-2.7-6.9-6.6-6.9c-3.9,0-6.5,3.1-6.5,6.8v0.1c0,3.7,2.7,6.9,6.6,6.9
		C95.9,31.6,98.6,28.6,98.6,24.8z"/>
	<path class="st0" d="M105.1,33.4c-0.5-0.4-0.9-1.1-0.9-1.8c0-1.2,1-2.2,2.2-2.2c0.6,0,1.1,0.2,1.4,0.4c1.7,1.2,3.5,2,5.6,2
		c2,0,3.1-0.8,3.1-2.1v-0.1c0-1.2-0.7-1.8-4.4-2.8c-4.4-1.1-7.2-2.3-7.2-6.7v-0.1c0-4,3.2-6.6,7.6-6.6c2.6,0,5,0.7,6.9,1.9
		c0.5,0.3,1.1,1,1.1,1.9c0,1.2-1,2.2-2.2,2.2c-0.5,0-0.8-0.1-1.2-0.3c-1.6-0.9-3.1-1.5-4.6-1.5c-1.8,0-2.8,0.8-2.8,1.9v0.1
		c0,1.4,0.9,1.9,4.7,2.9c4.4,1.2,6.9,2.7,6.9,6.5v0.1c0,4.3-3.3,6.8-8,6.8C110.5,36,107.6,35.1,105.1,33.4z"/>
</g>
</svg>
